<?xml version="1.0" encoding="utf-8"?>
<!-- Generator: Adobe Illustrator 23.0.1, SVG Export Plug-In . SVG Version: 6.00 Build 0)  -->
<svg version="1.1" id="Calque_1" xmlns="http://www.w3.org/2000/svg" xmlns:xlink="http://www.w3.org/1999/xlink" x="0px" y="0px"
	 viewBox="0 0 1028.4 899" style="enable-background:new 0 0 1028.4 899;" xml:space="preserve">
<style type="text/css">
	.st0{fill:#1D1D1B;}
	.st1{fill:#FFFFFF;}
</style>
<title>jp_2</title>
<g>
	<g id="Calque_1-2">
		<path class="st0" d="M244.9,161.6h236.9l0,0V662c0,130.9-106,237-236.9,237c0,0,0,0-0.1,0l0,0l0,0V161.6L244.9,161.6z"/>
		<path class="st0" d="M753.2,899H516.3l0,0V237c0-130.9,106-237,236.9-237c0,0,0,0,0,0l0,0l0,0V899L753.2,899z"/>
		<rect x="249.4" y="23" class="st1" width="232.3" height="116.2"/>
		<circle class="st1" cx="116.4" cy="782.5" r="116.4"/>
		<path class="st1" d="M790,476.9c131.7,0,238.5-106.8,238.5-238.5S921.7,0,790,0"/>
	</g>
</g>
</svg>
