<svg xmlns="http://www.w3.org/2000/svg" viewBox="0 0 1255.78 921.48"><defs><style>.cls-1,.cls-3{fill:#1d1d1b;}.cls-2{fill:#ead820;}.cls-3{font-size:90px;font-family:Bauhaus93, "Bauhaus 93";}</style></defs><title>jprod</title><g id="Calque_2" data-name="Calque 2"><g id="Calque_1-2" data-name="Calque 1"><path class="cls-1" d="M244.85,161.62H481.79a0,0,0,0,1,0,0V662A236.94,236.94,0,0,1,244.85,899h0a0,0,0,0,1,0,0V161.62a0,0,0,0,1,0,0Z"/><path class="cls-1" d="M516.26,0H753.19a0,0,0,0,1,0,0V662A236.94,236.94,0,0,1,516.26,899h0a0,0,0,0,1,0,0V0A0,0,0,0,1,516.26,0Z" transform="translate(1269.45 898.98) rotate(180)"/><rect class="cls-2" x="249.45" y="22.98" width="232.34" height="116.17"/><circle class="cls-2" cx="116.43" cy="782.55" r="116.43"/><path class="cls-2" d="M790,476.94c131.7,0,238.47-106.77,238.47-238.47S921.66,0,790,0"/><text class="cls-3" transform="translate(789.96 898.98)">Jaune Prod.</text></g></g></svg>